<svg xmlns="http://www.w3.org/2000/svg" xmlns:xlink="http://www.w3.org/1999/xlink" version="1.1" width="256" height="256" viewBox="0 0 256 256" xml:space="preserve">

<defs>
</defs>
<g style="stroke: none; stroke-width: 0; stroke-dasharray: none; stroke-linecap: butt; stroke-linejoin: miter; stroke-miterlimit: 10; fill: none; fill-rule: nonzero; opacity: 1;" transform="translate(1.4065934065934016 1.4065934065934016) scale(2.81 2.81)" >
	<path d="M 60.619 29.559 c -5.025 -4.501 -11.521 -6.571 -18.28 -5.821 c -11.143 1.231 -19.844 10.255 -20.689 21.458 c -0.51 6.745 1.898 13.374 6.607 18.188 c 1.875 1.918 2.951 4.667 2.951 7.543 v 14.879 c 0 2.313 1.882 4.195 4.195 4.195 h 19.195 c 2.313 0 4.195 -1.882 4.195 -4.195 V 70.693 c 0 -2.743 1.051 -5.383 2.884 -7.242 c 4.349 -4.41 6.743 -10.249 6.743 -16.441 C 68.42 40.359 65.577 33.999 60.619 29.559 z M 55.793 85.805 c 0 0.659 -0.536 1.195 -1.195 1.195 H 35.403 c -0.659 0 -1.195 -0.536 -1.195 -1.195 v -1.589 h 21.585 V 85.805 z M 55.793 75.321 h -2.868 c -0.828 0 -1.5 0.672 -1.5 1.5 s 0.672 1.5 1.5 1.5 h 2.868 v 2.895 H 34.208 v -2.895 h 13.353 c 0.828 0 1.5 -0.672 1.5 -1.5 s -0.672 -1.5 -1.5 -1.5 H 34.208 v -2.896 h 21.585 V 75.321 z M 57.633 46.048 c -0.828 0 -1.5 -0.671 -1.5 -1.5 c 0 -3.161 -1.352 -6.185 -3.708 -8.295 c -2.39 -2.139 -5.474 -3.12 -8.699 -2.767 c -0.815 0.09 -1.565 -0.502 -1.655 -1.326 c -0.091 -0.823 0.502 -1.564 1.326 -1.655 c 4.017 -0.447 8.04 0.836 11.029 3.513 c 2.991 2.679 4.707 6.517 4.707 10.53 C 59.133 45.376 58.461 46.048 57.633 46.048 z" style="stroke: none; stroke-width: 1; stroke-dasharray: none; stroke-linecap: butt; stroke-linejoin: miter; stroke-miterlimit: 10; fill: rgb(0,0,0); fill-rule: nonzero; opacity: 1;" transform=" matrix(1 0 0 1 0 0) " stroke-linecap="round" />
	<path d="M 45 19.3 c -0.829 0 -1.5 -0.671 -1.5 -1.5 V 1.5 C 43.5 0.671 44.171 0 45 0 s 1.5 0.671 1.5 1.5 v 16.3 C 46.5 18.628 45.829 19.3 45 19.3 z" style="stroke: none; stroke-width: 1; stroke-dasharray: none; stroke-linecap: butt; stroke-linejoin: miter; stroke-miterlimit: 10; fill: rgb(0,0,0); fill-rule: nonzero; opacity: 1;" transform=" matrix(1 0 0 1 0 0) " stroke-linecap="round" />
	<path d="M 59.474 23.082 c -0.255 0 -0.513 -0.065 -0.749 -0.202 c -0.718 -0.414 -0.963 -1.332 -0.549 -2.049 l 8.101 -14.032 c 0.414 -0.717 1.333 -0.963 2.049 -0.549 c 0.718 0.414 0.963 1.332 0.549 2.049 l -8.101 14.032 C 60.496 22.812 59.991 23.082 59.474 23.082 z" style="stroke: none; stroke-width: 1; stroke-dasharray: none; stroke-linecap: butt; stroke-linejoin: miter; stroke-miterlimit: 10; fill: rgb(0,0,0); fill-rule: nonzero; opacity: 1;" transform=" matrix(1 0 0 1 0 0) " stroke-linecap="round" />
	<path d="M 30.527 23.081 c -0.519 0 -1.022 -0.269 -1.3 -0.75 L 21.125 8.299 c -0.415 -0.717 -0.168 -1.635 0.549 -2.049 c 0.718 -0.415 1.635 -0.169 2.049 0.549 l 8.101 14.031 c 0.415 0.717 0.168 1.635 -0.549 2.049 C 31.039 23.016 30.781 23.081 30.527 23.081 z" style="stroke: none; stroke-width: 1; stroke-dasharray: none; stroke-linecap: butt; stroke-linejoin: miter; stroke-miterlimit: 10; fill: rgb(0,0,0); fill-rule: nonzero; opacity: 1;" transform=" matrix(1 0 0 1 0 0) " stroke-linecap="round" />
	<path d="M 70.299 33.546 c -0.518 0 -1.022 -0.269 -1.3 -0.75 c -0.414 -0.717 -0.169 -1.635 0.549 -2.049 l 13.805 -7.97 c 0.716 -0.414 1.635 -0.17 2.049 0.549 c 0.414 0.717 0.169 1.635 -0.549 2.049 l -13.805 7.97 C 70.812 33.481 70.554 33.546 70.299 33.546 z" style="stroke: none; stroke-width: 1; stroke-dasharray: none; stroke-linecap: butt; stroke-linejoin: miter; stroke-miterlimit: 10; fill: rgb(0,0,0); fill-rule: nonzero; opacity: 1;" transform=" matrix(1 0 0 1 0 0) " stroke-linecap="round" />
	<path d="M 19.476 33.416 c -0.254 0 -0.512 -0.065 -0.749 -0.202 l -13.579 -7.84 c -0.717 -0.414 -0.963 -1.332 -0.549 -2.049 c 0.414 -0.716 1.332 -0.963 2.049 -0.549 l 13.579 7.84 c 0.717 0.414 0.963 1.332 0.549 2.049 C 20.498 33.146 19.994 33.416 19.476 33.416 z" style="stroke: none; stroke-width: 1; stroke-dasharray: none; stroke-linecap: butt; stroke-linejoin: miter; stroke-miterlimit: 10; fill: rgb(0,0,0); fill-rule: nonzero; opacity: 1;" transform=" matrix(1 0 0 1 0 0) " stroke-linecap="round" />
</g>
</svg>