<svg xmlns="http://www.w3.org/2000/svg" xmlns:xlink="http://www.w3.org/1999/xlink" version="1.1" width="256" height="256" viewBox="0 0 256 256" xml:space="preserve">

<defs>
</defs>
<g style="stroke: none; stroke-width: 0; stroke-dasharray: none; stroke-linecap: butt; stroke-linejoin: miter; stroke-miterlimit: 10; fill: none; fill-rule: nonzero; opacity: 1;" transform="translate(1.4065934065934016 1.4065934065934016) scale(2.81 2.81)" >
	<circle cx="45" cy="45" r="45" style="stroke: none; stroke-width: 1; stroke-dasharray: none; stroke-linecap: butt; stroke-linejoin: miter; stroke-miterlimit: 10; fill: rgb(255,186,0); fill-rule: nonzero; opacity: 1;" transform="  matrix(1 0 0 1 0 0) "/>
	<path d="M 90 45 c 0 -1.779 -0.115 -3.529 -0.315 -5.254 L 58.328 20.94 C 34.422 25.617 24.34 40.872 29.583 67.853 l 32.556 18.76 C 78.488 79.871 90 63.783 90 45 z" style="stroke: none; stroke-width: 1; stroke-dasharray: none; stroke-linecap: butt; stroke-linejoin: miter; stroke-miterlimit: 10; fill: rgb(236,155,0); fill-rule: nonzero; opacity: 1;" transform=" matrix(1 0 0 1 0 0) " stroke-linecap="round" />
	<path d="M 68.185 37.385 c -1.641 0 -3.112 -0.944 -3.866 -2.401 c -0.15 -0.291 -0.308 -0.579 -0.473 -0.865 c -0.165 -0.286 -0.336 -0.567 -0.513 -0.842 c -0.885 -1.381 -0.967 -3.127 -0.146 -4.548 c 1.192 -2.064 0.484 -4.703 -1.579 -5.894 l -5.715 -3.3 c -2.064 -1.192 -4.703 -0.484 -5.894 1.579 l -0.001 0.002 c -0.808 1.4 -2.331 2.225 -3.945 2.146 c -0.702 -0.034 -1.406 -0.035 -2.111 0 c -1.612 0.078 -3.131 -0.749 -3.938 -2.147 l -0.001 -0.001 c -1.192 -2.064 -3.831 -2.771 -5.894 -1.579 l -5.715 3.3 c -2.064 1.192 -2.771 3.831 -1.579 5.894 l 0.001 0.001 c 0.807 1.397 0.764 3.127 -0.11 4.483 c -0.382 0.594 -0.734 1.204 -1.055 1.829 c -0.739 1.438 -2.215 2.344 -3.831 2.344 h -0.002 c -2.383 0 -4.315 1.932 -4.315 4.315 v 6.6 c 0 2.383 1.932 4.315 4.315 4.315 l 0 0 c 1.641 0 3.112 0.944 3.866 2.401 c 0.15 0.29 0.308 0.579 0.473 0.865 c 0.165 0.286 0.336 0.567 0.513 0.842 c 0.885 1.381 0.967 3.127 0.146 4.548 c -1.192 2.064 -0.484 4.703 1.579 5.894 l 5.715 3.3 c 2.064 1.192 4.703 0.484 5.894 -1.579 l 0.001 -0.002 c 0.808 -1.4 2.331 -2.225 3.945 -2.146 c 0.702 0.034 1.406 0.035 2.111 0 c 1.612 -0.078 3.131 0.749 3.938 2.147 l 0.001 0.001 c 1.192 2.064 3.83 2.771 5.894 1.579 l 5.715 -3.3 c 2.064 -1.191 2.771 -3.83 1.579 -5.894 l -0.001 -0.001 c -0.807 -1.397 -0.764 -3.127 0.11 -4.483 c 0.382 -0.594 0.734 -1.204 1.055 -1.829 c 0.739 -1.438 2.215 -2.344 3.831 -2.344 h 0.002 c 2.383 0 4.315 -1.932 4.315 -4.315 v -6.6 C 72.5 39.317 70.568 37.385 68.185 37.385 z M 51.11 55.583 c -5.845 3.375 -13.319 1.372 -16.693 -4.473 c -3.375 -5.845 -1.372 -13.319 4.473 -16.693 c 5.845 -3.374 13.319 -1.372 16.693 4.473 C 58.958 44.735 56.955 52.209 51.11 55.583 z" style="stroke: none; stroke-width: 1; stroke-dasharray: none; stroke-linecap: butt; stroke-linejoin: miter; stroke-miterlimit: 10; fill: rgb(44,44,44); fill-rule: nonzero; opacity: 1;" transform=" matrix(1 0 0 1 0 0) " stroke-linecap="round" />
</g>
</svg>